<svg width="800" height="600" xmlns="http://www.w3.org/2000/svg">
 <defs>
  <filter id="_blur">
   <feGaussianBlur in="SourceGraphic" stdDeviation="0.2"/>
  </filter>
  <linearGradient id="svg_5" x1="0.49997" y1="1.00074" x2="0.49997" y2="0.00076">
   <stop offset="0" stop-color="#ff4c0d"/>
   <stop offset="1" stop-color="#fc9502"/>
  </linearGradient>
  <filter id="svg_8_blur">
   <feGaussianBlur stdDeviation="0.1" in="SourceGraphic"/>
  </filter>
 </defs>
 <g>
  <title>Layer 1</title>
  <g stroke="null" id="svg_9">
   <g stroke="null" transform="matrix(1.03435 0.00941537 -0.00946031 1.02943 -2.55259 -11.9496)" id="svg_6" filter="url(#_blur)">
    <g stroke="null" id="svg_1">
     <path stroke="null" d="m635.67108,381.62744c-5.24087,108.22039 -108.33042,194.5736 -234.78633,194.5736c-129.80897,0 -235.03887,-94.04077 -235.03887,-203.21454c0,-14.59253 -0.30255,-43.75598 25.00414,-92.95984c15.145,-29.44665 24.64408,-47.94566 30.00496,-64.8557c2.94549,-9.29382 8.67393,-24.0593 25.00414,0c9.62909,14.1861 10.00165,34.58971 10.00165,34.58971c0,0 35.82593,-23.76962 60.00993,-69.17942c35.45336,-66.57006 7.16619,-106.36335 -2.50041,-134.03512c-3.34555,-9.5727 -5.4459,-26.77676 17.50289,-19.45671c23.38387,7.46057 85.20409,44.87582 117.51944,84.31241c46.12013,56.28394 62.51034,110.2547 62.51034,110.2547c0,0 14.76744,-15.84641 20.00331,-32.42785c5.91348,-18.72384 6.00099,-37.26825 25.00164,-17.29269c18.07049,18.99624 44.90743,54.69498 60.01243,88.63397c27.42704,61.63238 19.75077,121.05749 19.75077,121.05749z" id="svg_4" class="cls-3" fill-rule="evenodd" fill="url(#svg_5)"/>
     <path stroke="null" d="m400.88475,576.20104c-89.76235,0 -162.52688,-62.91219 -162.52688,-140.52069c0,-46.82798 21.82611,-75.25856 67.25112,-113.81311c29.08481,-24.68624 56.30681,-55.00628 67.87623,-75.65202c2.27788,-4.06429 7.46123,-25.244 27.44704,-0.44534c10.48423,13.00573 26.91945,36.13544 37.4587,55.87535c18.168,34.03411 22.50372,67.01756 22.50372,67.01756c0,0 17.80544,-9.07115 30.00496,-32.42785c3.93315,-7.52759 11.88447,-36.02518 34.11314,-7.53191c16.3102,20.90948 38.7164,58.50417 38.39885,106.97732c0,77.6085 -72.76703,140.52069 -162.52688,140.52069z" id="svg_3" class="cls-4" fill-rule="evenodd" fill="#fc9502"/>
     <path stroke="null" d="m403.38516,422.7092c23.12883,0 23.12883,37.03044 52.50868,86.47427c19.56324,32.92292 -9.6991,67.01756 -52.50868,67.01756c-42.80958,0 -65.01075,-30.00441 -65.01075,-67.01756c0,-37.01099 41.88193,-86.47427 65.01075,-86.47427z" id="svg_2" class="cls-5" fill-rule="evenodd" fill="#fce202"/>
    </g>
   </g>
   <g stroke="null" transform="matrix(1.03436 -0.00814642 0.0081853 1.02944 -8.78438 -5.17251)" fill="#fce202">
    <path stroke="null" fill="#ffffff" fill-rule="evenodd" d="m524.38996,337.79773c0,-22.69861 -7.33306,-41.26327 -19.50698,-55.80604c1.95433,-5.2697 8.46259,-26.42268 -1.88256,-55.04265c0,0 -15.92104,-5.58619 -52.17369,21.32074c-15.15004,-4.61803 -31.39381,-6.92688 -47.53,-7.00142c-16.13619,0.07454 -32.37996,2.38338 -47.51218,7.00142c-36.27063,-26.90693 -52.2095,-21.32074 -52.2095,-21.32074c-10.34515,28.61997 -3.8189,49.77295 -1.86474,55.04265c-12.15593,14.54277 -19.54261,33.10743 -19.54261,55.80604c0,79.69626 44.32075,97.53488 86.47201,102.7859c0,0 -30.30024,19.4958 -30.30024,52.26806c-10.81125,5.32556 -56.56627,21.63723 -73.50927,-10.14819c0,0 -10.02243,-19.96138 -29.08095,-21.43229c0,0 -18.53881,-0.26081 -1.30888,12.64329c0,0 12.44285,6.40561 21.08463,30.42623c0,0 9.60994,50.61088 82.205,27.87509c0.73504,0.39103 0.26894,24.48602 0.26894,29.42054l130.6314,0s0.21515,-48.35773 0.21515,-63.73843c0,-37.81851 -24.31187,-51.05778 -31.14285,-57.4819c42.29481,-5.1393 86.68716,-22.71712 86.68716,-102.61831"/>
   </g>
   <ellipse stroke="null" filter="url(#svg_8_blur)" ry="13.41287" rx="66.53907" id="svg_8" cy="569.4629" cx="412.96738" fill="#ffffff"/>
  </g>
 </g>
</svg>